<svg width="371" height="74" viewBox="0 0 371 74" fill="none" xmlns="http://www.w3.org/2000/svg">
    <path d="M55.2967 18.4321H36.8645V36.8644H55.2967V18.4321Z" fill="white"/>
    <path d="M18.4323 18.4321H0V36.8644H18.4323V18.4321Z" fill="#005BBB"/>
    <path d="M55.2967 36.8647H36.8645V55.297H55.2967V36.8647Z" fill="#DC143C"/>
    <path d="M18.4323 36.8647H0V55.297H18.4323V36.8647Z" fill="#FFD500"/>
    <path d="M36.8646 55.2969H18.4324V73.7291H36.8646V55.2969Z" fill="#FFD500"/>
    <path d="M73.7291 0H55.2969V18.4323H73.7291V0Z" fill="#005BBB"/>
    <path d="M92.1612 18.4321H73.729V36.8644H92.1612V18.4321Z" fill="#005BBB"/>
    <path d="M92.1612 36.8647H73.729V55.297H92.1612V36.8647Z" fill="#FFD500"/>
    <path d="M133.665 30.3292C133.054 31.8585 132.214 33.11 131.136 34.0838C130.059 35.0576 128.789 35.7612 127.322 36.2018C125.856 36.6424 124.268 36.8646 122.557 36.8646C120.846 36.8646 119.265 36.6424 117.81 36.2018C116.359 35.7612 115.107 35.0539 114.055 34.0838C113.004 33.11 112.182 31.8585 111.586 30.3292C110.99 28.8 110.69 26.9597 110.69 24.8047V9.20508H118.391V24.8047C118.391 26.4895 118.736 27.8114 119.421 28.7741C120.106 29.7331 121.191 30.2144 122.668 30.2144C124.145 30.2144 125.216 29.7368 125.878 28.7741C126.537 27.8151 126.871 26.4932 126.871 24.8047V9.20508H134.572V24.8047C134.58 26.9597 134.272 28.8 133.665 30.3292Z" fill="white"/>
    <path d="M160.058 36.4351L158.581 31.6511H150.413L148.935 36.4351H140.845L150.724 9.20508H158.348L168.227 36.4351H160.058ZM156.245 23.8716C156.011 22.9904 155.804 22.2239 155.623 21.5759C155.441 20.928 155.278 20.3466 155.138 19.8246C154.993 19.3062 154.871 18.8322 154.767 18.4064C154.664 17.9769 154.571 17.5326 154.493 17.066C154.416 17.5326 154.323 17.988 154.223 18.4286C154.119 18.8692 153.997 19.3506 153.853 19.869C153.712 20.3874 153.549 20.9724 153.368 21.6204C153.186 22.2684 152.979 23.02 152.746 23.8754L152.238 25.6638H156.752L156.245 23.8716Z" fill="white"/>
    <path d="M200.237 15.6258V19.3989H208.757V25.7788H200.237V36.4353H192.731V9.20898H214.281V15.6258H200.237Z" fill="white"/>
    <path d="M245.029 30.3292C244.418 31.8585 243.577 33.11 242.5 34.0838C241.423 35.0576 240.152 35.7612 238.686 36.2018C237.22 36.6424 235.631 36.8646 233.921 36.8646C232.21 36.8646 230.625 36.6424 229.174 36.2018C227.722 35.7612 226.471 35.0539 225.419 34.0838C224.368 33.11 223.546 31.8585 222.95 30.3292C222.353 28.8 222.053 26.9597 222.053 24.8047V9.20508H229.755V24.8047C229.755 26.4895 230.1 27.8114 230.785 28.7741C231.47 29.7331 232.554 30.2144 234.032 30.2144C235.509 30.2144 236.579 29.7368 237.242 28.7741C237.901 27.8151 238.234 26.4932 238.234 24.8047V9.20508H245.936V24.8047C245.944 26.9597 245.64 28.8 245.029 30.3292Z" fill="white"/>
    <path d="M269.241 15.7814V36.4353H261.695V15.7814H254.071V9.20898H276.865V15.7814H269.241Z" fill="white"/>
    <path d="M307.965 30.3292C307.354 31.8585 306.513 33.11 305.436 34.0838C304.358 35.0576 303.088 35.7612 301.622 36.2018C300.155 36.6424 298.567 36.8646 296.856 36.8646C295.146 36.8646 293.561 36.6424 292.109 36.2018C290.658 35.7612 289.406 35.0539 288.355 34.0838C287.303 33.11 286.481 31.8585 285.885 30.3292C285.289 28.8 284.989 26.9597 284.989 24.8047V9.20508H292.691V24.8047C292.691 26.4895 293.035 27.8114 293.72 28.7741C294.405 29.7331 295.49 30.2144 296.967 30.2144C298.445 30.2144 299.515 29.7368 300.178 28.7741C300.837 27.8151 301.17 26.4932 301.17 24.8047V9.20508H308.872V24.8047C308.879 26.9597 308.576 28.8 307.965 30.3292Z" fill="white"/>
    <path d="M333.014 36.4351L328.567 27.2559H325.523V36.4351H318.132V9.20508H330.307C331.888 9.20508 333.336 9.368 334.643 9.69014C335.954 10.016 337.076 10.527 338.009 11.2268C338.942 11.9266 339.66 12.8412 340.167 13.9705C340.671 15.0999 340.926 16.4662 340.926 18.0732C340.926 20.1208 340.486 21.7944 339.601 23.0904C338.716 24.3863 337.52 25.3713 336.013 26.0452L341.471 36.4314H333.014V36.4351ZM333.425 18.2731C333.425 17.4178 333.169 16.7179 332.662 16.1736C332.155 15.6293 331.299 15.3553 330.103 15.3553H325.53V21.3056H329.989C331.24 21.3056 332.125 21.0465 332.647 20.5281C333.162 20.0097 333.425 19.258 333.425 18.2731Z" fill="white"/>
    <path d="M349.876 36.4353V9.20898H370.726V15.5481H357.344V19.2064H365.398V25.427H357.344V30.0961H371V36.4353H349.876Z" fill="white"/>
    <path d="M118.169 47.2619H115.359V54.9081H113.467V47.2619H110.694V45.729H118.169V47.2619Z" fill="white"/>
    <path d="M120.891 51.4312C120.891 50.7536 121.02 50.15 121.283 49.6205C121.546 49.091 121.92 48.68 122.409 48.3912C122.898 48.1024 123.468 47.958 124.112 47.958C125.034 47.958 125.782 48.2394 126.367 48.8022C126.949 49.365 127.274 50.1315 127.341 51.0979L127.352 51.5645C127.352 52.6124 127.06 53.4492 126.475 54.0823C125.89 54.7155 125.108 55.0302 124.123 55.0302C123.138 55.0302 122.357 54.7155 121.768 54.086C121.18 53.4566 120.891 52.5975 120.891 51.5163V51.4312ZM122.713 51.5608C122.713 52.2087 122.835 52.7049 123.079 53.0456C123.324 53.3899 123.672 53.5603 124.127 53.5603C124.568 53.5603 124.912 53.3899 125.16 53.053C125.408 52.716 125.53 52.1717 125.53 51.4275C125.53 50.7906 125.408 50.2981 125.16 49.9501C124.912 49.602 124.564 49.428 124.112 49.428C123.668 49.428 123.324 49.602 123.079 49.9501C122.835 50.2981 122.713 50.835 122.713 51.5608Z" fill="white"/>
    <path d="M133.536 48.0878L133.591 48.8506C134.076 48.2581 134.728 47.9619 135.55 47.9619C136.428 47.9619 137.031 48.31 137.361 49.0024C137.838 48.31 138.523 47.9619 139.408 47.9619C140.149 47.9619 140.697 48.1767 141.06 48.6062C141.423 49.0357 141.6 49.6837 141.6 50.5502V54.9046H139.771V50.5575C139.771 50.1725 139.697 49.8874 139.545 49.7096C139.394 49.5319 139.127 49.443 138.746 49.443C138.198 49.443 137.82 49.7022 137.613 50.2243L137.62 54.9083H135.798V50.565C135.798 50.1688 135.72 49.8836 135.565 49.7096C135.409 49.5319 135.143 49.4467 134.769 49.4467C134.25 49.4467 133.877 49.6615 133.647 50.091V54.912H131.825V48.0915H133.536V48.0878Z" fill="white"/>
    <path d="M146.077 51.4312C146.077 50.7536 146.207 50.15 146.47 49.6205C146.733 49.091 147.107 48.68 147.595 48.3912C148.084 48.1024 148.654 47.958 149.299 47.958C150.22 47.958 150.968 48.2394 151.553 48.8022C152.135 49.365 152.461 50.1315 152.527 51.0979L152.538 51.5645C152.538 52.6124 152.246 53.4492 151.661 54.0823C151.076 54.7155 150.295 55.0302 149.31 55.0302C148.325 55.0302 147.543 54.7155 146.955 54.086C146.366 53.4566 146.077 52.5975 146.077 51.5163V51.4312ZM147.899 51.5608C147.899 52.2087 148.021 52.7049 148.265 53.0456C148.51 53.3899 148.858 53.5603 149.313 53.5603C149.754 53.5603 150.098 53.3899 150.346 53.053C150.594 52.716 150.717 52.1717 150.717 51.4275C150.717 50.7906 150.594 50.2981 150.346 49.9501C150.098 49.602 149.75 49.428 149.299 49.428C148.854 49.428 148.51 49.602 148.265 49.9501C148.021 50.2981 147.899 50.835 147.899 51.5608Z" fill="white"/>
    <path d="M160.847 49.7946C160.599 49.7612 160.381 49.7427 160.192 49.7427C159.503 49.7427 159.051 49.976 158.837 50.4425V54.9043H157.015V48.0839H158.737L158.788 48.8985C159.155 48.2727 159.659 47.958 160.307 47.958C160.507 47.958 160.699 47.9839 160.873 48.0395L160.847 49.7946Z" fill="white"/>
    <path d="M168.908 49.7946C168.66 49.7612 168.442 49.7427 168.253 49.7427C167.564 49.7427 167.112 49.976 166.898 50.4425V54.9043H165.076V48.0839H166.798L166.85 48.8985C167.216 48.2727 167.72 47.958 168.368 47.958C168.568 47.958 168.76 47.9839 168.934 48.0395L168.908 49.7946Z" fill="white"/>
    <path d="M172.633 51.4312C172.633 50.7536 172.763 50.15 173.026 49.6205C173.288 49.091 173.662 48.68 174.151 48.3912C174.64 48.1024 175.21 47.958 175.854 47.958C176.776 47.958 177.524 48.2394 178.109 48.8022C178.691 49.365 179.017 50.1315 179.083 51.0979L179.094 51.5645C179.094 52.6124 178.802 53.4492 178.217 54.0823C177.632 54.7155 176.85 55.0302 175.866 55.0302C174.881 55.0302 174.099 54.7155 173.511 54.086C172.922 53.4566 172.633 52.5975 172.633 51.5163V51.4312ZM174.451 51.5608C174.451 52.2087 174.573 52.7049 174.818 53.0456C175.062 53.3899 175.41 53.5603 175.866 53.5603C176.306 53.5603 176.651 53.3899 176.899 53.053C177.147 52.716 177.269 52.1717 177.269 51.4275C177.269 50.7906 177.147 50.2981 176.899 49.9501C176.651 49.602 176.302 49.428 175.851 49.428C175.406 49.428 175.062 49.602 174.818 49.9501C174.573 50.2981 174.451 50.835 174.451 51.5608Z" fill="white"/>
    <path d="M189.499 52.4273L190.395 48.084H192.154L190.414 54.9044H188.888L187.596 50.613L186.304 54.9044H184.785L183.045 48.084H184.804L185.693 52.4199L186.94 48.084H188.259L189.499 52.4273Z" fill="white"/>
    <path d="M203.481 54.9043V49.4206H202.466V48.0839H203.481V47.5026C203.481 46.7398 203.699 46.1436 204.14 45.7215C204.58 45.2994 205.195 45.0884 205.984 45.0884C206.235 45.0884 206.546 45.1291 206.909 45.2143L206.891 46.625C206.739 46.588 206.554 46.5695 206.335 46.5695C205.65 46.5695 205.306 46.8916 205.306 47.5322V48.0802H206.661V49.4169H205.306V54.9006H203.481V54.9043Z" fill="white"/>
    <path d="M210.679 51.4312C210.679 50.7536 210.808 50.15 211.071 49.6205C211.331 49.091 211.708 48.68 212.197 48.3912C212.686 48.1024 213.256 47.958 213.9 47.958C214.822 47.958 215.57 48.2394 216.151 48.8022C216.733 49.365 217.059 50.1315 217.125 51.0979L217.136 51.5645C217.136 52.6124 216.844 53.4492 216.259 54.0823C215.674 54.7155 214.893 55.0302 213.908 55.0302C212.923 55.0302 212.141 54.7155 211.553 54.086C210.964 53.4566 210.671 52.5975 210.671 51.5163V51.4312H210.679ZM212.501 51.5608C212.501 52.2087 212.623 52.7049 212.867 53.0456C213.112 53.3899 213.46 53.5603 213.915 53.5603C214.356 53.5603 214.7 53.3899 214.948 53.053C215.196 52.7123 215.318 52.1717 215.318 51.4275C215.318 50.7906 215.196 50.2981 214.948 49.9501C214.7 49.602 214.352 49.428 213.9 49.428C213.456 49.428 213.112 49.602 212.867 49.9501C212.623 50.2981 212.501 50.835 212.501 51.5608Z" fill="white"/>
    <path d="M225.449 49.7946C225.201 49.7612 224.982 49.7427 224.794 49.7427C224.105 49.7427 223.653 49.976 223.438 50.4425V54.9043H221.617V48.0839H223.338L223.39 48.8985C223.757 48.2727 224.26 47.958 224.908 47.958C225.108 47.958 225.301 47.9839 225.475 48.0395L225.449 49.7946Z" fill="white"/>
    <path d="M243.319 45.729V51.7719C243.319 52.7753 243.004 53.5714 242.378 54.1527C241.752 54.7341 240.893 55.0303 239.805 55.0303C238.735 55.0303 237.883 54.7452 237.253 54.1787C236.624 53.6121 236.302 52.8309 236.291 51.8422V45.729H238.183V51.7867C238.183 52.3865 238.327 52.8272 238.616 53.1012C238.905 53.3752 239.301 53.5122 239.812 53.5122C240.875 53.5122 241.415 52.9531 241.43 51.8348V45.729H243.319Z" fill="white"/>
    <path d="M250.583 52.1719L249.928 52.8273V54.9082H248.106V45.2256H249.928V50.5909L250.279 50.1354L252.023 48.0878H254.212L251.746 50.9315L254.423 54.9082H252.331L250.583 52.1719Z" fill="white"/>
    <path d="M262.188 49.7946C261.939 49.7612 261.721 49.7427 261.532 49.7427C260.843 49.7427 260.392 49.976 260.177 50.4425V54.9043H258.355V48.0839H260.077L260.129 48.8985C260.495 48.2727 260.999 47.958 261.647 47.958C261.847 47.958 262.039 47.9839 262.213 48.0395L262.188 49.7946Z" fill="white"/>
    <path d="M270.182 54.9043C270.097 54.7414 270.037 54.5378 270 54.2934C269.56 54.7859 268.986 55.0302 268.279 55.0302C267.612 55.0302 267.057 54.8377 266.616 54.4489C266.175 54.0638 265.957 53.5751 265.957 52.9863C265.957 52.2643 266.224 51.7089 266.76 51.3238C267.297 50.9387 268.071 50.7425 269.082 50.7387H269.919V50.3463C269.919 50.0315 269.837 49.7797 269.675 49.5909C269.512 49.4021 269.256 49.3058 268.908 49.3058C268.601 49.3058 268.36 49.3799 268.186 49.528C268.012 49.6761 267.923 49.876 267.923 50.1315H266.101C266.101 49.7353 266.224 49.3724 266.468 49.0355C266.712 48.6985 267.057 48.4356 267.501 48.2431C267.945 48.0506 268.445 47.958 269.001 47.958C269.841 47.958 270.508 48.169 271 48.5912C271.493 49.0133 271.741 49.6057 271.741 50.3722V53.327C271.744 53.975 271.837 54.4637 272.011 54.797V54.9043H270.182ZM268.675 53.638C268.945 53.638 269.193 53.5788 269.419 53.4603C269.645 53.3418 269.815 53.1789 269.923 52.9789V51.8051H269.241C268.33 51.8051 267.845 52.1199 267.786 52.7494L267.779 52.8567C267.779 53.0826 267.857 53.2714 268.019 53.4196C268.179 53.564 268.397 53.638 268.675 53.638Z" fill="white"/>
    <path d="M276.495 46.3215C276.495 46.0475 276.588 45.8254 276.769 45.6476C276.951 45.4699 277.202 45.3848 277.517 45.3848C277.828 45.3848 278.076 45.4736 278.261 45.6476C278.446 45.8254 278.539 46.0475 278.539 46.3215C278.539 46.5993 278.446 46.8251 278.258 47.0029C278.069 47.1806 277.824 47.2694 277.517 47.2694C277.21 47.2694 276.962 47.1806 276.777 47.0029C276.588 46.8251 276.495 46.5993 276.495 46.3215ZM278.428 54.9045H276.599V48.0841H278.428V54.9045Z" fill="white"/>
    <path d="M284.963 48.0878L285.019 48.8765C285.508 48.2656 286.159 47.9619 286.978 47.9619C287.7 47.9619 288.236 48.173 288.592 48.5988C288.944 49.0246 289.125 49.6578 289.132 50.502V54.9083H287.311V50.5464C287.311 50.1614 287.226 49.8799 287.059 49.7059C286.892 49.5319 286.611 49.443 286.222 49.443C285.711 49.443 285.326 49.6615 285.067 50.0984V54.9083H283.245V48.0878H284.963Z" fill="white"/>
    <path d="M297.008 55.0305C296.009 55.0305 295.194 54.7231 294.565 54.1122C293.935 53.4975 293.624 52.6829 293.624 51.661V51.4832C293.624 50.7982 293.757 50.1873 294.02 49.6467C294.283 49.1061 294.661 48.6914 295.146 48.3989C295.631 48.1063 296.186 47.9619 296.808 47.9619C297.741 47.9619 298.475 48.2544 299.012 48.8432C299.548 49.4319 299.815 50.265 299.815 51.3462V52.0905H295.472C295.531 52.5348 295.709 52.894 296.005 53.1606C296.301 53.4272 296.675 53.5642 297.131 53.5642C297.834 53.5642 298.382 53.3087 298.775 52.8014L299.671 53.8049C299.397 54.1899 299.026 54.4936 298.56 54.7083C298.093 54.9231 297.575 55.0305 297.008 55.0305ZM296.801 49.4282C296.438 49.4282 296.146 49.5504 295.92 49.7948C295.694 50.0392 295.549 50.3909 295.487 50.8464H298.019V50.702C298.012 50.2984 297.901 49.9836 297.693 49.7615C297.486 49.5393 297.186 49.4282 296.801 49.4282Z" fill="white"/>
    <path d="M317.888 51.994C317.773 52.9641 317.418 53.712 316.814 54.2415C316.211 54.7673 315.411 55.0339 314.411 55.0339C313.326 55.0339 312.46 54.6451 311.804 53.8676C311.153 53.09 310.823 52.0495 310.823 50.7461V49.8649C310.823 49.0133 310.975 48.2616 311.279 47.6136C311.582 46.9657 312.016 46.4695 312.575 46.1214C313.134 45.7734 313.782 45.603 314.515 45.603C315.489 45.603 316.27 45.8733 316.859 46.4176C317.447 46.9619 317.788 47.7136 317.884 48.6763H316.666C316.563 47.9432 316.333 47.4137 315.981 47.0841C315.629 46.7546 315.141 46.5917 314.511 46.5917C313.737 46.5917 313.134 46.8768 312.693 47.4507C312.253 48.0209 312.034 48.8355 312.034 49.8908V50.7795C312.034 51.7755 312.241 52.5679 312.66 53.1566C313.075 53.7454 313.656 54.0379 314.404 54.0379C315.078 54.0379 315.592 53.8861 315.952 53.5825C316.311 53.2788 316.548 52.7456 316.666 51.9903H317.888V51.994Z" fill="white"/>
    <path d="M323.879 48.9132C324.397 48.28 325.068 47.9616 325.897 47.9616C327.337 47.9616 328.067 48.7762 328.078 50.4017V54.908H326.912V50.3943C326.908 49.9018 326.793 49.539 326.575 49.3057C326.352 49.0687 326.012 48.954 325.545 48.954C325.168 48.954 324.834 49.0539 324.549 49.2576C324.264 49.4575 324.042 49.7241 323.883 50.0537V54.9117H322.716V45.229H323.883V48.9132H323.879Z" fill="white"/>
    <path d="M337.39 54.9043C337.324 54.771 337.268 54.5304 337.227 54.186C336.687 54.7488 336.039 55.0302 335.287 55.0302C334.613 55.0302 334.062 54.8414 333.632 54.46C333.203 54.0786 332.988 53.5973 332.988 53.0122C332.988 52.3013 333.258 51.7496 333.799 51.3571C334.339 50.9646 335.098 50.7684 336.076 50.7684H337.209V50.2315C337.209 49.8242 337.087 49.4983 336.842 49.2577C336.598 49.017 336.239 48.8948 335.765 48.8948C335.35 48.8948 334.998 48.9985 334.717 49.2095C334.436 49.4206 334.295 49.6724 334.295 49.9723H333.121C333.121 49.6316 333.243 49.3021 333.484 48.9874C333.725 48.6689 334.054 48.4209 334.469 48.2357C334.884 48.0506 335.339 47.958 335.832 47.958C336.617 47.958 337.231 48.1542 337.679 48.5467C338.127 48.9392 338.357 49.4798 338.372 50.1685V53.3085C338.372 53.9342 338.449 54.4341 338.612 54.8007V54.9007H337.39V54.9043ZM335.454 54.0157C335.82 54.0157 336.165 53.9194 336.494 53.7306C336.824 53.5417 337.061 53.2974 337.205 52.9937V51.5941H336.291C334.861 51.5941 334.147 52.0125 334.147 52.8493C334.147 53.2159 334.269 53.501 334.513 53.7046C334.758 53.9083 335.072 54.0157 335.454 54.0157Z" fill="white"/>
    <path d="M346.855 49.1318C346.677 49.1021 346.488 49.0873 346.281 49.0873C345.514 49.0873 344.996 49.4132 344.725 50.0649V54.9043H343.559V48.0839H344.692L344.711 48.8726C345.092 48.2616 345.636 47.958 346.336 47.958C346.562 47.958 346.736 47.9876 346.855 48.0469V49.1318Z" fill="white"/>
    <path d="M351.287 46.2769C351.287 46.0881 351.346 45.9289 351.461 45.7993C351.575 45.6697 351.746 45.603 351.975 45.603C352.201 45.603 352.375 45.6697 352.494 45.7993C352.612 45.9289 352.671 46.0881 352.671 46.2769C352.671 46.4658 352.612 46.625 352.494 46.7509C352.375 46.8768 352.205 46.9397 351.975 46.9397C351.749 46.9397 351.575 46.8768 351.461 46.7509C351.346 46.625 351.287 46.4658 351.287 46.2769ZM352.546 54.9043H351.379V48.0839H352.546V54.9043Z" fill="white"/>
    <path d="M359.351 46.436V48.0875H360.625V48.9872H359.351V53.2232C359.351 53.4972 359.407 53.7008 359.522 53.8378C359.636 53.9748 359.829 54.0415 360.103 54.0415C360.236 54.0415 360.421 54.0156 360.658 53.9674V54.9079C360.351 54.9931 360.055 55.0338 359.762 55.0338C359.24 55.0338 358.848 54.8746 358.585 54.5599C358.322 54.2451 358.189 53.7971 358.189 53.2158V48.9872H356.948V48.0875H358.189V46.436H359.351Z" fill="white"/>
    <path d="M367.571 53.1972L369.16 48.0874H370.408L367.668 55.9594C367.242 57.0925 366.568 57.6627 365.646 57.6627L365.424 57.6442L364.991 57.5627V56.6185L365.305 56.6444C365.702 56.6444 366.009 56.563 366.227 56.4038C366.45 56.2446 366.631 55.952 366.772 55.5262L367.031 54.8338L364.598 48.0911H365.872L367.571 53.1972Z" fill="white"/>
</svg>
