<svg width="20" height="20" viewBox="0 0 20 20" fill="none" xmlns="http://www.w3.org/2000/svg">
    <circle cx="10" cy="10" r="10" fill="#1650B5"/>
    <path d="M16.6667 5.86681C16.1656 6.0842 15.6356 6.22792 15.0933 6.29347C15.6654 5.95169 16.0942 5.41399 16.3 4.78014C15.7624 5.10018 15.1738 5.32567 14.56 5.44681C14.1497 5.00185 13.6033 4.70567 13.0065 4.60471C12.4098 4.50374 11.7964 4.60371 11.2625 4.88893C10.7287 5.17415 10.3046 5.62849 10.0568 6.1807C9.80903 6.7329 9.75152 7.35173 9.89333 7.94014C8.80628 7.88516 7.74296 7.60211 6.77243 7.10938C5.80191 6.61665 4.94589 5.92527 4.25999 5.08014C4.01942 5.50025 3.89301 5.97602 3.89333 6.46014C3.89248 6.90973 4.00281 7.35255 4.2145 7.74918C4.42619 8.14581 4.73267 8.48395 5.10666 8.73347C4.67198 8.72165 4.24659 8.60501 3.86666 8.39347V8.42681C3.86992 9.05673 4.09066 9.6662 4.49154 10.1521C4.89242 10.638 5.44883 10.9706 6.06666 11.0935C5.82883 11.1659 5.58191 11.204 5.33333 11.2068C5.16125 11.2048 4.98961 11.1892 4.81999 11.1601C4.99593 11.702 5.33641 12.1756 5.79404 12.5149C6.25168 12.8543 6.80371 13.0425 7.37333 13.0535C6.41146 13.8103 5.22392 14.2234 3.99999 14.2268C3.77715 14.2275 3.55449 14.2142 3.33333 14.1868C4.58295 14.9936 6.0392 15.422 7.52666 15.4201C8.55312 15.4308 9.57142 15.2368 10.5221 14.8495C11.4727 14.4622 12.3367 13.8894 13.0635 13.1645C13.7903 12.4395 14.3653 11.5771 14.755 10.6274C15.1448 9.67775 15.3414 8.65996 15.3333 7.63347V7.28014C15.8565 6.89001 16.3076 6.41176 16.6667 5.86681V5.86681Z" fill="white"/>
</svg>
