<svg width="20" height="20" viewBox="0 0 20 20" fill="none" xmlns="http://www.w3.org/2000/svg">
    <circle cx="10" cy="10" r="10" fill="#1650B5"/>
    <path d="M15.6467 3.3331H4.35332C4.22637 3.33134 4.10032 3.3546 3.98237 3.40156C3.86441 3.44851 3.75686 3.51825 3.66585 3.60678C3.57485 3.6953 3.50218 3.80089 3.45198 3.91751C3.40179 4.03412 3.37506 4.15949 3.37332 4.28643V15.7131C3.37506 15.84 3.40179 15.9654 3.45198 16.082C3.50218 16.1986 3.57485 16.3042 3.66585 16.3928C3.75686 16.4813 3.86441 16.551 3.98237 16.598C4.10032 16.6449 4.22637 16.6682 4.35332 16.6664H15.6467C15.7736 16.6682 15.8997 16.6449 16.0176 16.598C16.1356 16.551 16.2431 16.4813 16.3341 16.3928C16.4251 16.3042 16.4978 16.1986 16.548 16.082C16.5982 15.9654 16.6249 15.84 16.6267 15.7131V4.28643C16.6249 4.15949 16.5982 4.03412 16.548 3.91751C16.4978 3.80089 16.4251 3.6953 16.3341 3.60678C16.2431 3.51825 16.1356 3.44851 16.0176 3.40156C15.8997 3.3546 15.7736 3.33134 15.6467 3.3331V3.3331ZM7.39332 14.4931H5.39332V8.4931H7.39332V14.4931ZM6.39332 7.6531C6.1175 7.6531 5.85297 7.54353 5.65793 7.34849C5.46289 7.15345 5.35332 6.88893 5.35332 6.6131C5.35332 6.33728 5.46289 6.07275 5.65793 5.87771C5.85297 5.68267 6.1175 5.5731 6.39332 5.5731C6.53979 5.55649 6.68811 5.571 6.82857 5.61569C6.96904 5.66038 7.09848 5.73423 7.20843 5.83241C7.31837 5.93059 7.40634 6.05089 7.46657 6.18542C7.5268 6.31996 7.55793 6.4657 7.55793 6.6131C7.55793 6.7605 7.5268 6.90624 7.46657 7.04078C7.40634 7.17531 7.31837 7.29561 7.20843 7.39379C7.09848 7.49197 6.96904 7.56583 6.82857 7.61051C6.68811 7.6552 6.53979 7.66971 6.39332 7.6531V7.6531ZM14.6067 14.4931H12.6067V11.2731C12.6067 10.4664 12.32 9.93977 11.5933 9.93977C11.3684 9.94141 11.1494 10.012 10.9659 10.1419C10.7823 10.2718 10.643 10.4549 10.5667 10.6664C10.5145 10.8231 10.4919 10.9881 10.5 11.1531V14.4864H8.49999V8.48643H10.5V9.3331C10.6817 9.01784 10.9459 8.75811 11.2643 8.5819C11.5826 8.40569 11.943 8.31967 12.3067 8.3331C13.64 8.3331 14.6067 9.1931 14.6067 11.0398V14.4931Z" fill="white"/>
</svg>
